# xmcd
#
# Track frame offsets:
#	150
#	13997
#	28295
#	41789
#	58550
#	71415
#	86944
#	100039
#	111822
#	124579
#	135700
#	148005
#
# Disc length: 2201 seconds
#
# Revision: 1
# Processed by: cddbd v1.5.2PL0 Copyright (c) Steve Scherf et al.
# Submitted via: audiograbber 1.83.01
#
DISCID=ae08970c
DTITLE=Zarbo - Zarbo
DYEAR=1900
DGENRE=
TTITLE0=Man Monkey
TTITLE1=Don't End Up Working In A Supermarket
TTITLE2=One Too Many Yesterdays
TTITLE3=Tuesday Night
TTITLE4=Moany Moany
TTITLE5=Soul Vampires
TTITLE6=Precious Thing
TTITLE7=Whole Lot Better
TTITLE8=Walking Back To Happiness
TTITLE9=Talking To Da Man
TTITLE10=Slaughterhouse Rag
TTITLE11=Healed By The Hands Of Elvis
EXTD=http://www.zarbo.co.uk
EXTT0=
EXTT1=
EXTT2=
EXTT3=
EXTT4=
EXTT5=
EXTT6=
EXTT7=
EXTT8=
EXTT9=
EXTT10=
EXTT11=
PLAYORDER=
